<svg xmlns="http://www.w3.org/2000/svg" aria-hidden="true" style="width:0;height:0;position:absolute;overflow:hidden"><defs><symbol id="icon-map" viewBox="0 0 32 32"><path d="M16 3.215c-4.419 0-8 3.566-8 7.984 0 7.638 8 17.6 8 17.6s8-9.963 8-17.6c0-4.416-3.581-7.984-8-7.984zm0 12.401a4.32 4.32 0 1 1 0-8.64 4.32 4.32 0 0 1 0 8.64z"/></symbol><symbol id="icon-telegram" viewBox="0 0 32 32"><path d="M26.07 3.996a2.974 2.974 0 0 0-.933.223h-.004c-.285.113-1.64.683-3.7 1.547l-7.382 3.109c-5.297 2.23-10.504 4.426-10.504 4.426l.062-.024s-.359.118-.734.375c-.232.147-.431.34-.586.567-.184.27-.332.683-.277 1.11.09.722.558 1.155.894 1.394.34.242.664.355.664.355h.008l4.883 1.645c.219.703 1.488 4.875 1.793 5.836.18.574.355.933.574 1.207.106.14.23.257.379.351.077.045.16.081.246.106l-.05-.012c.015.004.027.016.038.02.04.011.067.015.118.023.773.234 1.394-.246 1.394-.246l.035-.028 2.883-2.625 4.832 3.707.11.047c1.007.442 2.027.196 2.566-.238.543-.437.754-.996.754-.996l.035-.09 3.734-19.129c.106-.472.133-.914.016-1.343a1.807 1.807 0 0 0-.781-1.047 1.87 1.87 0 0 0-1.067-.27zm-.101 2.05c-.004.063.008.056-.02.177v.011l-3.699 18.93c-.016.027-.043.086-.117.145-.078.062-.14.101-.465-.028l-5.91-4.531-3.57 3.254.75-4.79 9.656-9c.398-.37.265-.448.265-.448.028-.454-.601-.133-.601-.133l-12.176 7.543-.004-.02-5.851-1.972a.188.188 0 0 0 .03-.012l.032-.016.031-.011s5.211-2.196 10.508-4.426c2.652-1.117 5.324-2.242 7.379-3.11a831.676 831.676 0 0 1 3.66-1.53c.082-.032.043-.032.102-.032v-.001z"/></symbol><symbol id="icon-facebook" viewBox="0 0 32 32"><path d="M14.26 11.916v1.836h-1.344v2.244h1.344v6.671h2.763v-6.671h1.853s.175-1.076.259-2.253h-2.101V12.21c0-.231.301-.539.6-.539h1.504V9.334h-2.047c-2.899 0-2.831 2.247-2.831 2.583z"/><path d="M8 5.333A2.668 2.668 0 0 0 5.333 8v16A2.67 2.67 0 0 0 8 26.667h16A2.67 2.67 0 0 0 26.667 24V8A2.668 2.668 0 0 0 24 5.333H8zm0-2.666h16A5.332 5.332 0 0 1 29.333 8v16A5.332 5.332 0 0 1 24 29.333H8A5.332 5.332 0 0 1 2.667 24V8A5.332 5.332 0 0 1 8 2.667z"/></symbol><symbol id="icon-instagram" viewBox="0 0 32 32"><path d="M9.953 1.421c1.564-.072 2.063-.088 6.047-.088s4.483.017 6.045.088c1.563.071 2.629.32 3.563.681a7.218 7.218 0 0 1 2.597 1.693 7.158 7.158 0 0 1 1.691 2.596c.363.933.611 2 .683 3.56.072 1.567.088 2.065.088 6.048 0 3.984-.017 4.483-.088 6.047-.071 1.56-.32 2.627-.683 3.56a7.19 7.19 0 0 1-1.691 2.599 7.187 7.187 0 0 1-2.597 1.691c-.933.363-2 .611-3.56.683-1.565.072-2.064.088-6.048.088s-4.483-.017-6.047-.088c-1.56-.071-2.627-.32-3.56-.683a7.19 7.19 0 0 1-2.599-1.691 7.185 7.185 0 0 1-1.692-2.597c-.361-.933-.609-2-.681-3.56-.072-1.567-.088-2.065-.088-6.048 0-3.984.017-4.483.088-6.045s.32-2.629.681-3.563a7.192 7.192 0 0 1 1.693-2.597 7.195 7.195 0 0 1 2.596-1.692c.933-.361 2-.609 3.56-.681h.001zm11.974 2.64C20.38 3.99 19.916 3.976 16 3.976s-4.38.015-5.927.085c-1.431.065-2.207.304-2.724.505a4.57 4.57 0 0 0-1.687 1.096 4.543 4.543 0 0 0-1.096 1.687c-.201.517-.44 1.293-.505 2.724-.071 1.547-.085 2.011-.085 5.927s.015 4.38.085 5.927c.065 1.431.304 2.207.505 2.724a4.56 4.56 0 0 0 1.096 1.687 4.551 4.551 0 0 0 1.687 1.096c.517.201 1.293.44 2.724.505 1.547.071 2.009.085 5.927.085s4.38-.015 5.927-.085c1.431-.065 2.207-.304 2.724-.505a4.57 4.57 0 0 0 1.687-1.096 4.551 4.551 0 0 0 1.096-1.687c.201-.517.44-1.293.505-2.724.071-1.547.085-2.011.085-5.927s-.015-4.38-.085-5.927c-.065-1.431-.304-2.207-.505-2.724a4.57 4.57 0 0 0-1.096-1.687 4.543 4.543 0 0 0-1.687-1.096c-.517-.201-1.293-.44-2.724-.505zm-7.8 16.46a4.895 4.895 0 0 0 6.749-5 4.891 4.891 0 0 0-1.415-2.981 4.887 4.887 0 0 0-3.94-1.408 4.897 4.897 0 0 0-4.204 6.289 4.898 4.898 0 0 0 2.808 3.101zm-3.458-9.852a7.538 7.538 0 1 1 10.66 10.661 7.538 7.538 0 0 1-10.66-10.661zm14.542-1.085a1.785 1.785 0 0 0-.553-2.948 1.772 1.772 0 0 0-1.967.428 1.781 1.781 0 0 0 1.271 3.006c.464.007.912-.167 1.249-.486z"/></symbol><symbol id="icon-tel" viewBox="0 0 32 32"><path d="M21 2.667a3.004 3.004 0 0 1 3 3v20.667a3.004 3.004 0 0 1-3 3H11a3.004 3.004 0 0 1-3-3V5.667a3.004 3.004 0 0 1 3-3h10zm0 2H11a.997.997 0 0 0-1 1v20.667a1 1 0 0 0 1 1h10a.997.997 0 0 0 1-1V5.667a.997.997 0 0 0-1-1zm-3.335 18.666a1 1 0 0 1 .002 2l-3.333.005a1 1 0 0 1-.002-2l3.333-.005z"/></symbol><symbol id="icon-arrow-right" viewBox="0 0 32 32"><path d="M22.559 8 21.14 9.429l6.019 6.061H.999v2.021h26.159l-6.018 6.061 1.419 1.429 8.441-8.5-8.441-8.5z"/></symbol><symbol id="icon-arrow-left" viewBox="0 0 32 32"><path d="M31 15.49H4.84l6.019-6.061L9.44 8 1 16.5 9.44 25l1.419-1.429L4.84 17.51H31v-2.021z"/></symbol><symbol id="icon-close" viewBox="0 0 20 20"><path d="M10 8.586 2.929 1.515 1.515 2.929 8.586 10l-7.071 7.071 1.414 1.414L10 11.414l7.071 7.071 1.414-1.414L11.414 10l7.071-7.071-1.414-1.414L10 8.586z"/></symbol><symbol id="icon-select" viewBox="0 0 32 32"><path d="M3.272 10.587c.362-.362.862-.586 1.414-.586s1.052.224 1.414.586l9.9 9.897 9.9-9.9a2 2 0 0 1 2.827 2.829l.001-.001-11.313 11.315c-.362.362-.862.586-1.414.586s-1.052-.224-1.414-.586L3.272 13.414c-.361-.362-.585-.861-.585-1.413s.224-1.052.585-1.413z"/></symbol><symbol id="icon-x-1" viewBox="0 0 32 32"><path d="m27.428 3.429-24 24m0-24 24 24" style="stroke:var(--color1,#000)"/></symbol></defs></svg>